<?xml version="1.0" encoding="iso-8859-1"?>
<!-- Uploaded to: SVG Repo, www.svgrepo.com, Generator: SVG Repo Mixer Tools -->
<svg version="1.1" id="Layer_1" xmlns="http://www.w3.org/2000/svg" xmlns:xlink="http://www.w3.org/1999/xlink" 
	 viewBox="0 0 393.568 393.568" xml:space="preserve">
<circle style="fill:#71D456;" cx="196.784" cy="196.784" r="196.784"/>
<path style="fill:#FCFCFD;" d="M301.576,42.473H91.992c-8.663,0-15.709,7.046-15.709,15.709v276.945
	c0,8.663,7.046,15.709,15.709,15.709h209.325c8.663,0,15.709-7.047,15.709-15.709V58.182
	C317.285,49.519,310.238,42.473,301.576,42.473z"/>
<path style="fill:#6EB1E1;" d="M209.067,145.455c13.899-4.978,23.596-18.101,23.596-33.81c0-19.911-15.968-35.879-35.879-35.879
	s-35.879,15.968-35.879,35.879c0,15.451,9.956,28.832,23.596,33.81c-30.642,5.495-54.238,31.935-55.273,64.194h134.917
	C263.305,177.39,239.774,150.949,209.067,145.455z"/>
<g>
	<rect x="129.164" y="235.572" style="fill:#F1F3F7;" width="134.917" height="12.865"/>
	<rect x="129.164" y="270.158" style="fill:#F1F3F7;" width="134.917" height="12.865"/>
	<rect x="129.164" y="304.743" style="fill:#F1F3F7;" width="92.768" height="12.865"/>
</g>
</svg>